# Blender 4.5.3 LTS
# www.blender.org
mtllib Tile_Corridor.mtl
o 立方体
v -2.000000 0.000000 2.000000
v -2.000000 0.200000 2.000000
v -2.000000 0.000000 -2.000000
v -2.000000 0.200000 -2.000000
v 2.000000 0.000000 2.000000
v 2.000000 0.200000 2.000000
v 2.000000 0.000000 -2.000000
v 2.000000 0.200000 -2.000000
v -2.000000 0.000000 -2.000000
v -2.000000 0.000000 -2.000000
v -2.000000 0.000000 2.000000
v -2.000000 0.000000 2.000000
v -2.000000 0.200000 2.000000
v -2.000000 0.200000 2.000000
v -2.000000 0.200000 -2.000000
v -2.000000 0.200000 -2.000000
v 2.000000 0.000000 -2.000000
v 2.000000 0.000000 -2.000000
v 2.000000 0.200000 -2.000000
v 2.000000 0.200000 -2.000000
v 2.000000 0.000000 2.000000
v 2.000000 0.000000 2.000000
v 2.000000 0.200000 2.000000
v 2.000000 0.200000 2.000000
vn -1.0000 -0.0000 -0.0000
vn -0.0000 -0.0000 -1.0000
vn 1.0000 -0.0000 -0.0000
vn -0.0000 -0.0000 1.0000
vn -0.0000 -1.0000 -0.0000
vn -0.0000 1.0000 -0.0000
vt 0.375000 0.000000
vt 0.625000 0.000000
vt 0.625000 0.250000
vt 0.375000 0.250000
vt 0.625000 0.500000
vt 0.375000 0.500000
vt 0.625000 0.750000
vt 0.375000 0.750000
vt 0.625000 1.000000
vt 0.375000 1.000000
vt 0.125000 0.500000
vt 0.125000 0.750000
vt 0.875000 0.500000
vt 0.875000 0.750000
s 0
usemtl Edge
f 11/1/1 13/2/1 15/3/1 9/4/1
f 10/4/2 16/3/2 19/5/2 17/6/2
f 18/6/3 20/5/3 23/7/3 21/8/3
f 22/8/4 24/7/4 14/9/4 12/10/4
f 3/11/5 7/6/5 5/8/5 1/12/5
usemtl Check
f 8/5/6 4/13/6 2/14/6 6/7/6
